<svg width="153" height="86" viewBox="0 0 153 86" fill="none" xmlns="http://www.w3.org/2000/svg">
<g filter="url(#filter0_d_15_261)">
<path d="M30.9844 59.4688C21.8594 59.4688 15.1094 57.0625 10.7344 52.25C6.35938 47.4375 4.17188 39.9531 4.17188 29.7969C4.17188 10.0156 13.1562 0.125 31.125 0.125C33.75 0.125 36.2969 0.40625 38.7656 0.96875C41.2344 1.5 43.2344 2.17188 44.7656 2.98438C46.2969 3.79688 47.0625 4.57812 47.0625 5.32812C47.0625 5.79688 46.8906 6.42188 46.5469 7.20312C46.2344 7.98438 45.8594 8.67188 45.4219 9.26562C44.9844 9.85938 44.5938 10.1562 44.25 10.1562C44.0938 10.1562 43.6562 9.95312 42.9375 9.54688C41.3125 8.67188 39.6094 7.9375 37.8281 7.34375C36.0469 6.75 33.875 6.45312 31.3125 6.45312C24.5938 6.45312 19.6406 8.32812 16.4531 12.0781C13.2969 15.7969 11.7188 21.7344 11.7188 29.8906C11.7188 37.8594 13.2812 43.7344 16.4062 47.5156C19.5625 51.2656 24.4219 53.1406 30.9844 53.1406C33.7344 53.1406 36.0938 52.8125 38.0625 52.1562C40.0312 51.5 41.9219 50.6875 43.7344 49.7188C44.6094 49.25 45.1406 49.0156 45.3281 49.0156C45.6719 49.0156 46.0625 49.3125 46.5 49.9062C46.9688 50.5 47.375 51.1719 47.7188 51.9219C48.0625 52.6406 48.2344 53.1562 48.2344 53.4688C48.2344 54.25 47.4375 55.125 45.8438 56.0938C44.2812 57.0312 42.1719 57.8281 39.5156 58.4844C36.8906 59.1406 34.0469 59.4688 30.9844 59.4688Z" fill="black"/>
<path d="M56.9531 59C56.4844 59 56.0938 58.6094 55.7812 57.8281C55.4688 57.0469 55.3125 56.2188 55.3125 55.3438C55.3125 54.5625 55.4219 54.0781 55.6406 53.8906L77.1094 26.9375C78.8594 24.6562 80.125 22.8594 80.9062 21.5469C81.7188 20.2031 82.2344 19.0781 82.4531 18.1719C82.6719 17.2656 82.7812 16.1562 82.7812 14.8438C82.7812 12.1562 81.8438 10.0312 79.9688 8.46875C78.125 6.90625 75.5938 6.125 72.375 6.125C70.0625 6.125 68.0938 6.4375 66.4688 7.0625C64.8438 7.6875 63.2812 8.48438 61.7812 9.45312C60.8438 10.0781 60.2188 10.3906 59.9062 10.3906C59.625 10.3906 59.2656 10.1406 58.8281 9.64062C58.3906 9.10938 58 8.51562 57.6562 7.85938C57.3438 7.17188 57.1875 6.625 57.1875 6.21875C57.1875 5.125 58.0469 4.125 59.7656 3.21875C61.4844 2.28125 63.5469 1.53125 65.9531 0.96875C68.3594 0.40625 70.4531 0.125 72.2344 0.125C75.8281 0.125 78.9531 0.703125 81.6094 1.85938C84.2969 3.01562 86.3594 4.65625 87.7969 6.78125C89.2656 8.90625 90 11.4219 90 14.3281C90 17.0781 89.5781 19.5 88.7344 21.5938C87.8906 23.6562 86.2969 26.2344 83.9531 29.3281C81.6406 32.3906 77.2812 37.8281 70.875 45.6406L64.7812 53.0938H88.7812C89.375 53.0938 89.7969 53.2812 90.0469 53.6562C90.3281 54.0312 90.4688 54.6719 90.4688 55.5781V56.5156C90.4688 57.3594 90.3281 57.9844 90.0469 58.3906C89.7969 58.7969 89.375 59 88.7812 59H56.9531Z" fill="black"/>
<path d="M106.266 59C105.391 59 104.75 58.7969 104.344 58.3906C103.938 57.9844 103.734 57.3594 103.734 56.5156V3.17188C103.734 2.29688 103.938 1.67188 104.344 1.29688C104.75 0.890625 105.391 0.6875 106.266 0.6875H123.094C130.906 0.6875 137.156 3 141.844 7.625C146.531 12.25 148.875 19.6406 148.875 29.7969C148.875 40.0156 146.531 47.4375 141.844 52.0625C137.156 56.6875 130.906 59 123.094 59H106.266ZM122.531 52.6719C128.156 52.6719 132.688 50.8438 136.125 47.1875C139.562 43.5 141.281 37.7031 141.281 29.7969C141.281 24.4844 140.469 20.1406 138.844 16.7656C137.219 13.3594 135 10.8906 132.188 9.35938C129.375 7.79688 126.156 7.01562 122.531 7.01562H111.094V52.6719H122.531Z" fill="black"/>
<path d="M18 71C18 74.866 14.866 78 11 78C7.13401 78 4 74.866 4 71C4 67.134 7.13401 64 11 64C14.866 64 18 67.134 18 71Z" fill="#FD0505"/>
</g>
<defs>
<filter id="filter0_d_15_261" x="0" y="0.125" width="152.875" height="85.875" filterUnits="userSpaceOnUse" color-interpolation-filters="sRGB">
<feFlood flood-opacity="0" result="BackgroundImageFix"/>
<feColorMatrix in="SourceAlpha" type="matrix" values="0 0 0 0 0 0 0 0 0 0 0 0 0 0 0 0 0 0 127 0" result="hardAlpha"/>
<feOffset dy="4"/>
<feGaussianBlur stdDeviation="2"/>
<feComposite in2="hardAlpha" operator="out"/>
<feColorMatrix type="matrix" values="0 0 0 0 0 0 0 0 0 0 0 0 0 0 0 0 0 0 0.25 0"/>
<feBlend mode="normal" in2="BackgroundImageFix" result="effect1_dropShadow_15_261"/>
<feBlend mode="normal" in="SourceGraphic" in2="effect1_dropShadow_15_261" result="shape"/>
</filter>
</defs>
</svg>
